<svg xmlns="http://www.w3.org/2000/svg" viewBox="0 0 40 40" width="40" height="40"><g stroke="#45999f" stroke-width="1.5" stroke-linecap="round" fill="none"><path d="M 20 22 L 20 36"/><path d="M 20 25 C 15 28 10 32 6.5 37"/><path d="M 20 26 C 25 29 30 32 33.5 37"/><path d="M 20 30 C 17 33 15 35 13 38"/><path d="M 20 30 C 23 33 25 35 27 38"/></g><line x1="20" y1="14" x2="20" y2="23" stroke="#45999f" stroke-width="3.4" stroke-linecap="round"/><path d="M 20 16 Q 9 12 7 2 Q 16 7 20 16 Z" fill="#45999f"/><path d="M 20 16 Q 31 12 33 2 Q 24 7 20 16 Z" fill="#45999f"/></svg>