<svg xmlns="http://www.w3.org/2000/svg" viewBox="0 0 40 40" width="40" height="40"><path d="M 18 8 C 12 9 9 14 9 19 C 9 27 14 33 18 33 C 16 31 14 26 14 19 C 14 14 15 10 18 8 Z" fill="#424356" opacity="0.65"/><path d="M 20 7 C 26 7 29 12 29 19 C 29 27 24 34 20 34 C 16 34 11 27 11 19 C 11 12 14 7 20 7 Z" fill="#8486ad"/><path d="M 15 18 Q 18 16 21 18 Q 18 20 15 18 Z" fill="#2a2b37"/><path d="M 22 18 Q 25 16 27 18 Q 25 20 22 18 Z" fill="#2a2b37"/><path d="M 17 26 Q 20 28 24 26" fill="none" stroke="#2a2b37" stroke-width="1.4" stroke-linecap="round"/></svg>