<svg xmlns="http://www.w3.org/2000/svg" viewBox="0 0 40 40" width="40" height="40"><path d="M 33.2,20.0 L 37.0,20.8 L 35.8,26.3 L 32.0,25.4 L 29.3,29.3 L 31.4,32.6 L 26.8,35.6 L 24.7,32.3 L 20.0,33.2 L 19.2,37.0 L 13.7,35.8 L 14.6,32.0 L 10.7,29.3 L 7.4,31.4 L 4.4,26.8 L 7.7,24.7 L 6.8,20.0 L 3.0,19.2 L 4.2,13.7 L 8.0,14.6 L 10.7,10.7 L 8.6,7.4 L 13.2,4.4 L 15.3,7.7 L 20.0,6.8 L 20.8,3.0 L 26.3,4.2 L 25.4,8.0 L 29.3,10.7 L 32.6,8.6 L 35.6,13.2 L 32.3,15.3 Z M 25.0 20.0 A 5.0 5.0 0 1 0 15.0 20.0 A 5.0 5.0 0 1 0 25.0 20.0 Z" fill="#909aa0" fill-rule="evenodd" stroke="#6f787e" stroke-width="1" stroke-linejoin="round"/><circle cx="20" cy="20" r="5.6" fill="none" stroke="#aeb6bb" stroke-width="1.1" opacity="0.7"/></svg>