<?xml version="1.0" encoding="UTF-8"?>
<svg xmlns="http://www.w3.org/2000/svg" viewBox="0 0 600 600" width="600" height="600">
<defs><linearGradient id="fl" x1="0" y1="1" x2="0" y2="0"><stop offset="0" stop-color="#26260c"/><stop offset="0.35" stop-color="#56500f"/><stop offset="0.7" stop-color="#9c901f"/><stop offset="1" stop-color="#cabe44"/></linearGradient><linearGradient id="fl2" x1="0" y1="1" x2="0" y2="0"><stop offset="0" stop-color="#56500f"/><stop offset="0.6" stop-color="#9c901f"/><stop offset="1" stop-color="#e0d488"/></linearGradient><radialGradient id="glow2"><stop offset="0" stop-color="#e0d488" stop-opacity="0.7"/><stop offset="1" stop-color="#e0d488" stop-opacity="0"/></radialGradient><linearGradient id="tri" x1="0" y1="1" x2="0" y2="0"><stop offset="0" stop-color="#56500f" stop-opacity="0.95"/><stop offset="0.55" stop-color="#9c901f" stop-opacity="0.55"/><stop offset="1" stop-color="#cabe44" stop-opacity="0.30"/></linearGradient><radialGradient id="glow"><stop offset="0" stop-color="#cabe44" stop-opacity="0.74"/><stop offset="0.5" stop-color="#cabe44" stop-opacity="0.40"/><stop offset="1" stop-color="#cabe44" stop-opacity="0"/></radialGradient><radialGradient id="halo2"><stop offset="0" stop-color="#5e5614" stop-opacity="0.42"/><stop offset="0.6" stop-color="#26260c" stop-opacity="0.14"/><stop offset="1" stop-color="#26260c" stop-opacity="0"/></radialGradient><radialGradient id="floor"><stop offset="0" stop-color="#26260c" stop-opacity="0.45"/><stop offset="1" stop-color="#9c901f" stop-opacity="0"/></radialGradient><radialGradient id="vin" cx="0.5" cy="0.5" r="0.72"><stop offset="0" stop-color="#000000" stop-opacity="0"/><stop offset="0.62" stop-color="#000000" stop-opacity="0"/><stop offset="1" stop-color="#07080c" stop-opacity="0.9"/></radialGradient><radialGradient id="cardo"><stop offset="0" stop-color="#9a7a3e" stop-opacity="0.9"/><stop offset="1" stop-color="#5f4a24" stop-opacity="0.3"/></radialGradient></defs>
<rect width="600" height="600" fill="#14161d"/>
<rect width="600" height="600" fill="url(#vin)"/>
<g><animateTransform attributeName="transform" type="rotate" values="0 300 300;360 300 300" dur="140s" repeatCount="indefinite"/>
<circle cx="300" cy="300" r="240" fill="none" stroke="#5a5a64" stroke-width="2.6" opacity="0.95"/>
<circle cx="300" cy="300" r="234.5" fill="none" stroke="#43434a" stroke-width="1.1" opacity="0.75"/>
<line x1="519.0" y1="300.0" x2="533.0" y2="300.0" stroke="#5a5a64" stroke-width="2.4" opacity="0.95"/>
<line x1="523.1" y1="329.4" x2="531.0" y2="330.4" stroke="#43434a" stroke-width="1.3" opacity="0.7"/>
<line x1="517.3" y1="358.2" x2="525.1" y2="360.3" stroke="#43434a" stroke-width="1.3" opacity="0.7"/>
<line x1="507.9" y1="386.1" x2="515.3" y2="389.2" stroke="#43434a" stroke-width="1.3" opacity="0.7"/>
<line x1="489.7" y1="409.5" x2="501.8" y2="416.5" stroke="#5a5a64" stroke-width="2.4" opacity="0.95"/>
<line x1="478.5" y1="437.0" x2="484.9" y2="441.8" stroke="#43434a" stroke-width="1.3" opacity="0.7"/>
<line x1="459.1" y1="459.1" x2="464.8" y2="464.8" stroke="#43434a" stroke-width="1.3" opacity="0.7"/>
<line x1="437.0" y1="478.5" x2="441.8" y2="484.9" stroke="#43434a" stroke-width="1.3" opacity="0.7"/>
<line x1="409.5" y1="489.7" x2="416.5" y2="501.8" stroke="#5a5a64" stroke-width="2.4" opacity="0.95"/>
<line x1="386.1" y1="507.9" x2="389.2" y2="515.3" stroke="#43434a" stroke-width="1.3" opacity="0.7"/>
<line x1="358.2" y1="517.3" x2="360.3" y2="525.1" stroke="#43434a" stroke-width="1.3" opacity="0.7"/>
<line x1="329.4" y1="523.1" x2="330.4" y2="531.0" stroke="#43434a" stroke-width="1.3" opacity="0.7"/>
<line x1="300.0" y1="519.0" x2="300.0" y2="533.0" stroke="#5a5a64" stroke-width="2.4" opacity="0.95"/>
<line x1="270.6" y1="523.1" x2="269.6" y2="531.0" stroke="#43434a" stroke-width="1.3" opacity="0.7"/>
<line x1="241.8" y1="517.3" x2="239.7" y2="525.1" stroke="#43434a" stroke-width="1.3" opacity="0.7"/>
<line x1="213.9" y1="507.9" x2="210.8" y2="515.3" stroke="#43434a" stroke-width="1.3" opacity="0.7"/>
<line x1="190.5" y1="489.7" x2="183.5" y2="501.8" stroke="#5a5a64" stroke-width="2.4" opacity="0.95"/>
<line x1="163.0" y1="478.5" x2="158.2" y2="484.9" stroke="#43434a" stroke-width="1.3" opacity="0.7"/>
<line x1="140.9" y1="459.1" x2="135.2" y2="464.8" stroke="#43434a" stroke-width="1.3" opacity="0.7"/>
<line x1="121.5" y1="437.0" x2="115.1" y2="441.8" stroke="#43434a" stroke-width="1.3" opacity="0.7"/>
<line x1="110.3" y1="409.5" x2="98.2" y2="416.5" stroke="#5a5a64" stroke-width="2.4" opacity="0.95"/>
<line x1="92.1" y1="386.1" x2="84.7" y2="389.2" stroke="#43434a" stroke-width="1.3" opacity="0.7"/>
<line x1="82.7" y1="358.2" x2="74.9" y2="360.3" stroke="#43434a" stroke-width="1.3" opacity="0.7"/>
<line x1="76.9" y1="329.4" x2="69.0" y2="330.4" stroke="#43434a" stroke-width="1.3" opacity="0.7"/>
<line x1="81.0" y1="300.0" x2="67.0" y2="300.0" stroke="#5a5a64" stroke-width="2.4" opacity="0.95"/>
<line x1="76.9" y1="270.6" x2="69.0" y2="269.6" stroke="#43434a" stroke-width="1.3" opacity="0.7"/>
<line x1="82.7" y1="241.8" x2="74.9" y2="239.7" stroke="#43434a" stroke-width="1.3" opacity="0.7"/>
<line x1="92.1" y1="213.9" x2="84.7" y2="210.8" stroke="#43434a" stroke-width="1.3" opacity="0.7"/>
<line x1="110.3" y1="190.5" x2="98.2" y2="183.5" stroke="#5a5a64" stroke-width="2.4" opacity="0.95"/>
<line x1="121.5" y1="163.0" x2="115.1" y2="158.2" stroke="#43434a" stroke-width="1.3" opacity="0.7"/>
<line x1="140.9" y1="140.9" x2="135.2" y2="135.2" stroke="#43434a" stroke-width="1.3" opacity="0.7"/>
<line x1="163.0" y1="121.5" x2="158.2" y2="115.1" stroke="#43434a" stroke-width="1.3" opacity="0.7"/>
<line x1="190.5" y1="110.3" x2="183.5" y2="98.2" stroke="#5a5a64" stroke-width="2.4" opacity="0.95"/>
<line x1="213.9" y1="92.1" x2="210.8" y2="84.7" stroke="#43434a" stroke-width="1.3" opacity="0.7"/>
<line x1="241.8" y1="82.7" x2="239.7" y2="74.9" stroke="#43434a" stroke-width="1.3" opacity="0.7"/>
<line x1="270.6" y1="76.9" x2="269.6" y2="69.0" stroke="#43434a" stroke-width="1.3" opacity="0.7"/>
<line x1="300.0" y1="81.0" x2="300.0" y2="67.0" stroke="#5a5a64" stroke-width="2.4" opacity="0.95"/>
<line x1="329.4" y1="76.9" x2="330.4" y2="69.0" stroke="#43434a" stroke-width="1.3" opacity="0.7"/>
<line x1="358.2" y1="82.7" x2="360.3" y2="74.9" stroke="#43434a" stroke-width="1.3" opacity="0.7"/>
<line x1="386.1" y1="92.1" x2="389.2" y2="84.7" stroke="#43434a" stroke-width="1.3" opacity="0.7"/>
<line x1="409.5" y1="110.3" x2="416.5" y2="98.2" stroke="#5a5a64" stroke-width="2.4" opacity="0.95"/>
<line x1="437.0" y1="121.5" x2="441.8" y2="115.1" stroke="#43434a" stroke-width="1.3" opacity="0.7"/>
<line x1="459.1" y1="140.9" x2="464.8" y2="135.2" stroke="#43434a" stroke-width="1.3" opacity="0.7"/>
<line x1="478.5" y1="163.0" x2="484.9" y2="158.2" stroke="#43434a" stroke-width="1.3" opacity="0.7"/>
<line x1="489.7" y1="190.5" x2="501.8" y2="183.5" stroke="#5a5a64" stroke-width="2.4" opacity="0.95"/>
<line x1="507.9" y1="213.9" x2="515.3" y2="210.8" stroke="#43434a" stroke-width="1.3" opacity="0.7"/>
<line x1="517.3" y1="241.8" x2="525.1" y2="239.7" stroke="#43434a" stroke-width="1.3" opacity="0.7"/>
<line x1="523.1" y1="270.6" x2="531.0" y2="269.6" stroke="#43434a" stroke-width="1.3" opacity="0.7"/>
<polygon points="533.0,292.5 540.5,300.0 533.0,307.5 525.5,300.0" fill="url(#cardo)" stroke="#8f6a36" stroke-width="0.8"/>
<circle cx="533.0" cy="300.0" r="2.2" fill="none" stroke="#8f6a36" stroke-width="0.9" opacity="0.8"/>
<polygon points="300.0,525.5 307.5,533.0 300.0,540.5 292.5,533.0" fill="url(#cardo)" stroke="#8f6a36" stroke-width="0.8"/>
<circle cx="300.0" cy="533.0" r="2.2" fill="none" stroke="#8f6a36" stroke-width="0.9" opacity="0.8"/>
<polygon points="67.0,292.5 74.5,300.0 67.0,307.5 59.5,300.0" fill="url(#cardo)" stroke="#8f6a36" stroke-width="0.8"/>
<circle cx="67.0" cy="300.0" r="2.2" fill="none" stroke="#8f6a36" stroke-width="0.9" opacity="0.8"/>
<polygon points="300.0,59.5 307.5,67.0 300.0,74.5 292.5,67.0" fill="url(#cardo)" stroke="#8f6a36" stroke-width="0.8"/>
<circle cx="300.0" cy="67.0" r="2.2" fill="none" stroke="#8f6a36" stroke-width="0.9" opacity="0.8"/>
</g>
<circle cx="300" cy="300" r="210" fill="none" stroke="#43434a" stroke-width="1.2" opacity="0.55"/>
<g><animateTransform attributeName="transform" type="rotate" values="0 300 300;-360 300 300" dur="200s" repeatCount="indefinite"/>
<g transform="translate(499.0,300.0) rotate(90.0)" stroke="#8a7038" stroke-width="1.6" opacity="0.82" stroke-linecap="round" stroke-linejoin="round"><polygon points="0,-4.5 3.2,0 0,4.5 -3.2,0" fill="none"/></g>
<g transform="translate(492.2,351.5) rotate(105.0)" stroke="#8a7038" stroke-width="1.6" opacity="0.82" stroke-linecap="round" stroke-linejoin="round"><line x1="0" y1="-4.5" x2="0" y2="4.5"/><circle cx="-3.6" cy="0" r="1.3" fill="#8a7038" stroke="none"/><circle cx="3.6" cy="0" r="1.3" fill="#8a7038" stroke="none"/></g>
<g transform="translate(472.3,399.5) rotate(120.0)" stroke="#8a7038" stroke-width="1.6" opacity="0.82" stroke-linecap="round" stroke-linejoin="round"><polygon points="0,-4.5 3.8,3.5 -3.8,3.5" fill="none"/></g>
<g transform="translate(440.7,440.7) rotate(135.0)" stroke="#8a7038" stroke-width="1.6" opacity="0.82" stroke-linecap="round" stroke-linejoin="round"><path d="M -3.2 -4.5 Q 3.4 -2 -3.2 0 Q 3.4 2 -3.2 4.5" fill="none"/></g>
<g transform="translate(399.5,472.3) rotate(150.0)" stroke="#8a7038" stroke-width="1.6" opacity="0.82" stroke-linecap="round" stroke-linejoin="round"><polygon points="0,-4.5 3.2,0 0,4.5 -3.2,0" fill="none"/></g>
<g transform="translate(351.5,492.2) rotate(165.0)" stroke="#8a7038" stroke-width="1.6" opacity="0.82" stroke-linecap="round" stroke-linejoin="round"><line x1="0" y1="-4.5" x2="0" y2="4.5"/><circle cx="-3.6" cy="0" r="1.3" fill="#8a7038" stroke="none"/><circle cx="3.6" cy="0" r="1.3" fill="#8a7038" stroke="none"/></g>
<g transform="translate(300.0,499.0) rotate(180.0)" stroke="#8a7038" stroke-width="1.6" opacity="0.82" stroke-linecap="round" stroke-linejoin="round"><polygon points="0,-4.5 3.8,3.5 -3.8,3.5" fill="none"/></g>
<g transform="translate(248.5,492.2) rotate(195.0)" stroke="#8a7038" stroke-width="1.6" opacity="0.82" stroke-linecap="round" stroke-linejoin="round"><path d="M -3.2 -4.5 Q 3.4 -2 -3.2 0 Q 3.4 2 -3.2 4.5" fill="none"/></g>
<g transform="translate(200.5,472.3) rotate(210.0)" stroke="#8a7038" stroke-width="1.6" opacity="0.82" stroke-linecap="round" stroke-linejoin="round"><polygon points="0,-4.5 3.2,0 0,4.5 -3.2,0" fill="none"/></g>
<g transform="translate(159.3,440.7) rotate(225.0)" stroke="#8a7038" stroke-width="1.6" opacity="0.82" stroke-linecap="round" stroke-linejoin="round"><line x1="0" y1="-4.5" x2="0" y2="4.5"/><circle cx="-3.6" cy="0" r="1.3" fill="#8a7038" stroke="none"/><circle cx="3.6" cy="0" r="1.3" fill="#8a7038" stroke="none"/></g>
<g transform="translate(127.7,399.5) rotate(240.0)" stroke="#8a7038" stroke-width="1.6" opacity="0.82" stroke-linecap="round" stroke-linejoin="round"><polygon points="0,-4.5 3.8,3.5 -3.8,3.5" fill="none"/></g>
<g transform="translate(107.8,351.5) rotate(255.0)" stroke="#8a7038" stroke-width="1.6" opacity="0.82" stroke-linecap="round" stroke-linejoin="round"><path d="M -3.2 -4.5 Q 3.4 -2 -3.2 0 Q 3.4 2 -3.2 4.5" fill="none"/></g>
<g transform="translate(101.0,300.0) rotate(270.0)" stroke="#8a7038" stroke-width="1.6" opacity="0.82" stroke-linecap="round" stroke-linejoin="round"><polygon points="0,-4.5 3.2,0 0,4.5 -3.2,0" fill="none"/></g>
<g transform="translate(107.8,248.5) rotate(285.0)" stroke="#8a7038" stroke-width="1.6" opacity="0.82" stroke-linecap="round" stroke-linejoin="round"><line x1="0" y1="-4.5" x2="0" y2="4.5"/><circle cx="-3.6" cy="0" r="1.3" fill="#8a7038" stroke="none"/><circle cx="3.6" cy="0" r="1.3" fill="#8a7038" stroke="none"/></g>
<g transform="translate(127.7,200.5) rotate(300.0)" stroke="#8a7038" stroke-width="1.6" opacity="0.82" stroke-linecap="round" stroke-linejoin="round"><polygon points="0,-4.5 3.8,3.5 -3.8,3.5" fill="none"/></g>
<g transform="translate(159.3,159.3) rotate(315.0)" stroke="#8a7038" stroke-width="1.6" opacity="0.82" stroke-linecap="round" stroke-linejoin="round"><path d="M -3.2 -4.5 Q 3.4 -2 -3.2 0 Q 3.4 2 -3.2 4.5" fill="none"/></g>
<g transform="translate(200.5,127.7) rotate(330.0)" stroke="#8a7038" stroke-width="1.6" opacity="0.82" stroke-linecap="round" stroke-linejoin="round"><polygon points="0,-4.5 3.2,0 0,4.5 -3.2,0" fill="none"/></g>
<g transform="translate(248.5,107.8) rotate(345.0)" stroke="#8a7038" stroke-width="1.6" opacity="0.82" stroke-linecap="round" stroke-linejoin="round"><line x1="0" y1="-4.5" x2="0" y2="4.5"/><circle cx="-3.6" cy="0" r="1.3" fill="#8a7038" stroke="none"/><circle cx="3.6" cy="0" r="1.3" fill="#8a7038" stroke="none"/></g>
<g transform="translate(300.0,101.0) rotate(360.0)" stroke="#8a7038" stroke-width="1.6" opacity="0.82" stroke-linecap="round" stroke-linejoin="round"><polygon points="0,-4.5 3.8,3.5 -3.8,3.5" fill="none"/></g>
<g transform="translate(351.5,107.8) rotate(375.0)" stroke="#8a7038" stroke-width="1.6" opacity="0.82" stroke-linecap="round" stroke-linejoin="round"><path d="M -3.2 -4.5 Q 3.4 -2 -3.2 0 Q 3.4 2 -3.2 4.5" fill="none"/></g>
<g transform="translate(399.5,127.7) rotate(390.0)" stroke="#8a7038" stroke-width="1.6" opacity="0.82" stroke-linecap="round" stroke-linejoin="round"><polygon points="0,-4.5 3.2,0 0,4.5 -3.2,0" fill="none"/></g>
<g transform="translate(440.7,159.3) rotate(405.0)" stroke="#8a7038" stroke-width="1.6" opacity="0.82" stroke-linecap="round" stroke-linejoin="round"><line x1="0" y1="-4.5" x2="0" y2="4.5"/><circle cx="-3.6" cy="0" r="1.3" fill="#8a7038" stroke="none"/><circle cx="3.6" cy="0" r="1.3" fill="#8a7038" stroke="none"/></g>
<g transform="translate(472.3,200.5) rotate(420.0)" stroke="#8a7038" stroke-width="1.6" opacity="0.82" stroke-linecap="round" stroke-linejoin="round"><polygon points="0,-4.5 3.8,3.5 -3.8,3.5" fill="none"/></g>
<g transform="translate(492.2,248.5) rotate(435.0)" stroke="#8a7038" stroke-width="1.6" opacity="0.82" stroke-linecap="round" stroke-linejoin="round"><path d="M -3.2 -4.5 Q 3.4 -2 -3.2 0 Q 3.4 2 -3.2 4.5" fill="none"/></g>
</g>
<circle cx="300" cy="300" r="150" fill="none" stroke="#43434a" stroke-width="1.4" opacity="0.5"/>
<g><animateTransform attributeName="transform" type="rotate" values="0 300 300;-360 300 300" dur="160s" repeatCount="indefinite"/>
<g transform="translate(470.0,300.0) rotate(90.0)" stroke="#8f6a36" fill="#8f6a36" stroke-width="1.9" opacity="0.85" stroke-linecap="round" stroke-linejoin="round"><line x1="-3" y1="-4" x2="-3" y2="4"/><line x1="3" y1="-4" x2="3" y2="4"/></g>
<g transform="translate(457.1,365.1) rotate(112.5)" stroke="#8f6a36" fill="#8f6a36" stroke-width="1.9" opacity="0.85" stroke-linecap="round" stroke-linejoin="round"><path d="M -4.5 0 A 4.5 4.5 0 0 1 4.5 0" fill="none"/><line x1="0" y1="-2" x2="0" y2="5"/></g>
<g transform="translate(420.2,420.2) rotate(135.0)" stroke="#8f6a36" fill="#8f6a36" stroke-width="1.9" opacity="0.85" stroke-linecap="round" stroke-linejoin="round"><polygon points="0,-5 3,-1 0,3 -3,-1" fill="none"/><line x1="0" y1="3" x2="0" y2="6"/></g>
<g transform="translate(365.1,457.1) rotate(157.5)" stroke="#8f6a36" fill="#8f6a36" stroke-width="1.9" opacity="0.85" stroke-linecap="round" stroke-linejoin="round"><line x1="0" y1="5" x2="0" y2="-3"/><circle cx="0" cy="-6.5" r="1.7" stroke="none"/></g>
<g transform="translate(300.0,470.0) rotate(180.0)" stroke="#8f6a36" fill="#8f6a36" stroke-width="1.9" opacity="0.85" stroke-linecap="round" stroke-linejoin="round"><path d="M -4.5 0 A 4.5 4.5 0 0 1 4.5 0" fill="none"/><line x1="0" y1="-2" x2="0" y2="5"/></g>
<g transform="translate(234.9,457.1) rotate(202.5)" stroke="#8f6a36" fill="#8f6a36" stroke-width="1.9" opacity="0.85" stroke-linecap="round" stroke-linejoin="round"><line x1="-3" y1="-4" x2="-3" y2="4"/><line x1="3" y1="-4" x2="3" y2="4"/></g>
<g transform="translate(179.8,420.2) rotate(225.0)" stroke="#8f6a36" fill="#8f6a36" stroke-width="1.9" opacity="0.85" stroke-linecap="round" stroke-linejoin="round"><line x1="0" y1="5" x2="0" y2="-3"/><circle cx="0" cy="-6.5" r="1.7" stroke="none"/></g>
<g transform="translate(142.9,365.1) rotate(247.5)" stroke="#8f6a36" fill="#8f6a36" stroke-width="1.9" opacity="0.85" stroke-linecap="round" stroke-linejoin="round"><polygon points="0,-5 3,-1 0,3 -3,-1" fill="none"/><line x1="0" y1="3" x2="0" y2="6"/></g>
<g transform="translate(130.0,300.0) rotate(270.0)" stroke="#8f6a36" fill="#8f6a36" stroke-width="1.9" opacity="0.85" stroke-linecap="round" stroke-linejoin="round"><line x1="-3" y1="-4" x2="-3" y2="4"/><line x1="3" y1="-4" x2="3" y2="4"/></g>
<g transform="translate(142.9,234.9) rotate(292.5)" stroke="#8f6a36" fill="#8f6a36" stroke-width="1.9" opacity="0.85" stroke-linecap="round" stroke-linejoin="round"><path d="M -4.5 0 A 4.5 4.5 0 0 1 4.5 0" fill="none"/><line x1="0" y1="-2" x2="0" y2="5"/></g>
<g transform="translate(179.8,179.8) rotate(315.0)" stroke="#8f6a36" fill="#8f6a36" stroke-width="1.9" opacity="0.85" stroke-linecap="round" stroke-linejoin="round"><polygon points="0,-5 3,-1 0,3 -3,-1" fill="none"/><line x1="0" y1="3" x2="0" y2="6"/></g>
<g transform="translate(234.9,142.9) rotate(337.5)" stroke="#8f6a36" fill="#8f6a36" stroke-width="1.9" opacity="0.85" stroke-linecap="round" stroke-linejoin="round"><line x1="0" y1="5" x2="0" y2="-3"/><circle cx="0" cy="-6.5" r="1.7" stroke="none"/></g>
<g transform="translate(300.0,130.0) rotate(360.0)" stroke="#8f6a36" fill="#8f6a36" stroke-width="1.9" opacity="0.85" stroke-linecap="round" stroke-linejoin="round"><path d="M -4.5 0 A 4.5 4.5 0 0 1 4.5 0" fill="none"/><line x1="0" y1="-2" x2="0" y2="5"/></g>
<g transform="translate(365.1,142.9) rotate(382.5)" stroke="#8f6a36" fill="#8f6a36" stroke-width="1.9" opacity="0.85" stroke-linecap="round" stroke-linejoin="round"><line x1="-3" y1="-4" x2="-3" y2="4"/><line x1="3" y1="-4" x2="3" y2="4"/></g>
<g transform="translate(420.2,179.8) rotate(405.0)" stroke="#8f6a36" fill="#8f6a36" stroke-width="1.9" opacity="0.85" stroke-linecap="round" stroke-linejoin="round"><line x1="0" y1="5" x2="0" y2="-3"/><circle cx="0" cy="-6.5" r="1.7" stroke="none"/></g>
<g transform="translate(457.1,234.9) rotate(427.5)" stroke="#8f6a36" fill="#8f6a36" stroke-width="1.9" opacity="0.85" stroke-linecap="round" stroke-linejoin="round"><polygon points="0,-5 3,-1 0,3 -3,-1" fill="none"/><line x1="0" y1="3" x2="0" y2="6"/></g>
</g>
<g><animateTransform attributeName="transform" type="rotate" values="0 300 300;360 300 300" dur="70s" repeatCount="indefinite"/>
<circle cx="300" cy="300" r="118" fill="none" stroke="#43434a" stroke-width="1.3" opacity="0.45" stroke-dasharray="2.5 11"/>
<circle cx="418" cy="300" r="2.4" fill="#8f6a36" opacity="0.85"/>
<circle cx="182" cy="300" r="1.8" fill="#8f6a36" opacity="0.7"/>
</g>
<polygon points="300,182 197,365 403,365" fill="none" stroke="url(#tri)" stroke-width="2.8"><animate attributeName="stroke-width" values="2.6;3.2;2.6" dur="2.8s" repeatCount="indefinite"/></polygon>
<ellipse cx="300" cy="362" rx="98" ry="15" fill="url(#floor)"><animate attributeName="opacity" values="0.45;0.8;0.5;0.6;0.45" keyTimes="0;0.3;0.55;0.8;1" dur="2.3s" repeatCount="indefinite"/></ellipse>
<ellipse cx="300" cy="362" rx="50" ry="8" fill="#cabe44" opacity="0.25"><animate attributeName="opacity" values="0.18;0.4;0.2;0.18" keyTimes="0;0.35;0.7;1" dur="1.9s" repeatCount="indefinite"/></ellipse>
<ellipse cx="300" cy="296" rx="92" ry="120" fill="url(#halo2)"><animate attributeName="opacity" values="0.6;0.9;0.65;0.95;0.6" keyTimes="0;0.22;0.5;0.74;1" dur="2.9s" repeatCount="indefinite"/></ellipse>
<ellipse cx="300" cy="294" rx="76" ry="102" fill="url(#glow)"><animate attributeName="opacity" values="0.62;1;0.7;0.96;0.62" keyTimes="0;0.2;0.48;0.72;1" dur="1.7s" repeatCount="indefinite"/><animate attributeName="ry" values="102;116;96;110;102" keyTimes="0;0.25;0.5;0.75;1" dur="1.7s" repeatCount="indefinite"/><animate attributeName="rx" values="76;84;72;80;76" keyTimes="0;0.25;0.5;0.75;1" dur="1.7s" repeatCount="indefinite"/></ellipse>
<ellipse cx="300" cy="316" rx="54" ry="74" fill="url(#glow)"><animate attributeName="opacity" values="0.55;0.92;0.5;0.82;0.55" keyTimes="0;0.3;0.55;0.8;1" dur="2.1s" repeatCount="indefinite"/></ellipse>









<ellipse cx="300" cy="300" rx="70" ry="96" fill="url(#glow)" opacity="0"><animate attributeName="opacity" values="0;0.55;0.14;0.45;0" keyTimes="0;0.22;0.5;0.72;1" dur="6s" repeatCount="indefinite"/></ellipse>
<ellipse id="reactGlow" cx="300" cy="298" rx="82" ry="112" fill="url(#glow)" opacity="0"/>
<g id="elemReact"><g transform="translate(300 360)"><g><animateTransform attributeName="transform" type="scale" values="1 1;1 1.016;1 0.993;1 1.02;1 0.997;1 1.011;1 1" keyTimes="0;0.16;0.34;0.52;0.7;0.86;1" calcMode="spline" keySplines="0.5 0 0.5 1;0.5 0 0.5 1;0.5 0 0.5 1;0.5 0 0.5 1;0.5 0 0.5 1;0.5 0 0.5 1" dur="2.0s" repeatCount="indefinite"/><g transform="translate(-300 -360)"><ellipse cx="300" cy="358" rx="50" ry="8" fill="url(#glow2)"><animate attributeName="opacity" values="0.5;0.34;0.56;0.4;0.5" keyTimes="0;0.3;0.55;0.8;1" dur="2.3s" repeatCount="indefinite"/></ellipse><path d="M 224 366 C 220 354 230 346 244 344 C 258 342 266 350 280 349 C 294 348 300 340 314 340 C 330 340 338 350 352 351 C 366 352 376 356 376 366 C 330 372 270 372 224 366 Z" fill="url(#fl)" opacity="0.85"/><path d="M 298 345 C 307 340 316 340 326 343" fill="none" stroke="#e8dca0" stroke-width="2.4" stroke-linecap="round" opacity="0.55"><animate attributeName="opacity" values="0.55;0.4;0.58;0.55" keyTimes="0;0.35;0.7;1" dur="2.6s" repeatCount="indefinite"/></path></g></g></g><g opacity="0"><animate attributeName="opacity" values="0;0.65;0.55;0" keyTimes="0;0.25;0.7;1" dur="2.5s" begin="0.0s" repeatCount="indefinite"/><animateTransform attributeName="transform" type="translate" values="0 0;0 -7" dur="2.5s" begin="0.0s" repeatCount="indefinite"/><circle cx="256" cy="364" r="4.0" fill="#d6d486" fill-opacity="0.10" stroke="#ece4a6" stroke-width="1.0"><animate attributeName="r" values="4.0;4.7;1.2" keyTimes="0;0.7;1" dur="2.5s" begin="0.0s" repeatCount="indefinite"/></circle></g><g opacity="0"><animate attributeName="opacity" values="0;0.65;0.55;0" keyTimes="0;0.25;0.7;1" dur="2.0s" begin="1.1s" repeatCount="indefinite"/><animateTransform attributeName="transform" type="translate" values="0 0;0 -7" dur="2.0s" begin="1.1s" repeatCount="indefinite"/><circle cx="300" cy="356" r="3.0" fill="#d6d486" fill-opacity="0.10" stroke="#ece4a6" stroke-width="1.0"><animate attributeName="r" values="3.0;3.7;1.2" keyTimes="0;0.7;1" dur="2.0s" begin="1.1s" repeatCount="indefinite"/></circle></g><g opacity="0"><animate attributeName="opacity" values="0;0.65;0.55;0" keyTimes="0;0.25;0.7;1" dur="2.8s" begin="0.5s" repeatCount="indefinite"/><animateTransform attributeName="transform" type="translate" values="0 0;0 -7" dur="2.8s" begin="0.5s" repeatCount="indefinite"/><circle cx="342" cy="362" r="3.5" fill="#d6d486" fill-opacity="0.10" stroke="#ece4a6" stroke-width="1.0"><animate attributeName="r" values="3.5;4.2;1.2" keyTimes="0;0.7;1" dur="2.8s" begin="0.5s" repeatCount="indefinite"/></circle></g><g opacity="0.45"><animate attributeName="opacity" values="0.3;0.6;0.35;0.3" keyTimes="0;0.4;0.7;1" dur="1.9s" begin="0.6s" repeatCount="indefinite"/><circle cx="320" cy="352" r="2.5" fill="#d6d486" fill-opacity="0.10" stroke="#ece4a6" stroke-width="1.0"/></g><g opacity="0.45"><animate attributeName="opacity" values="0.3;0.6;0.35;0.3" keyTimes="0;0.4;0.7;1" dur="2.2s" begin="1.4s" repeatCount="indefinite"/><circle cx="274" cy="360" r="4.5" fill="#d6d486" fill-opacity="0.10" stroke="#ece4a6" stroke-width="1.0"/></g><g opacity="0.45"><animate attributeName="opacity" values="0.3;0.6;0.35;0.3" keyTimes="0;0.4;0.7;1" dur="2.1s" begin="0.2s" repeatCount="indefinite"/><circle cx="308" cy="366" r="3.0" fill="#d6d486" fill-opacity="0.10" stroke="#ece4a6" stroke-width="1.0"/></g><path d="M 282 344 C 278 330 285 318 282 304" fill="none" stroke="#cabe44" stroke-width="3" stroke-linecap="round" opacity="0"><animate attributeName="opacity" values="0;0.16;0.07;0" keyTimes="0;0.3;0.7;1" dur="5.5s" begin="0.5s" repeatCount="indefinite"/><animateTransform attributeName="transform" type="translate" values="0 0;0 -15;0 -35;0 -50" keyTimes="0;0.3;0.7;1" dur="5.5s" begin="0.5s" repeatCount="indefinite"/></path><path d="M 322 344 C 318 330 325 318 322 304" fill="none" stroke="#cabe44" stroke-width="3" stroke-linecap="round" opacity="0"><animate attributeName="opacity" values="0;0.13;0.06;0" keyTimes="0;0.3;0.7;1" dur="6.2s" begin="2.4s" repeatCount="indefinite"/><animateTransform attributeName="transform" type="translate" values="0 0;0 -14;0 -32;0 -46" keyTimes="0;0.3;0.7;1" dur="6.2s" begin="2.4s" repeatCount="indefinite"/></path></g>
























</svg>