<?xml version="1.0" encoding="UTF-8"?>
<svg xmlns="http://www.w3.org/2000/svg" viewBox="0 0 600 600" width="600" height="600">
<defs><linearGradient id="fl" gradientUnits="userSpaceOnUse" x1="300" y1="414" x2="300" y2="186"><stop offset="0" stop-color="#2b654d"/><stop offset="0.5" stop-color="#2f6e54"/><stop offset="1" stop-color="#32765a"/></linearGradient><linearGradient id="fl2" gradientUnits="userSpaceOnUse" x1="300" y1="414" x2="300" y2="186"><stop offset="0" stop-color="#2f6e54"/><stop offset="1" stop-color="#32765a"/></linearGradient><radialGradient id="glow2"><stop offset="0" stop-color="#419874" stop-opacity="0.7"/><stop offset="1" stop-color="#419874" stop-opacity="0"/></radialGradient><linearGradient id="tri" x1="0" y1="1" x2="0" y2="0"><stop offset="0" stop-color="#2b654d" stop-opacity="0.55"/><stop offset="0.55" stop-color="#1c4232" stop-opacity="0.32"/><stop offset="1" stop-color="#153025" stop-opacity="0.16"/></linearGradient><radialGradient id="glow"><stop offset="0" stop-color="#265843" stop-opacity="0.40"/><stop offset="0.5" stop-color="#1b4031" stop-opacity="0.18"/><stop offset="1" stop-color="#1b4031" stop-opacity="0"/></radialGradient><radialGradient id="halo2"><stop offset="0" stop-color="#10251d" stop-opacity="0.46"/><stop offset="0.6" stop-color="#0b1a14" stop-opacity="0.16"/><stop offset="1" stop-color="#0b1a14" stop-opacity="0"/></radialGradient><radialGradient id="floor"><stop offset="0" stop-color="#265843" stop-opacity="0.34"/><stop offset="1" stop-color="#265843" stop-opacity="0"/></radialGradient><radialGradient id="vin" cx="0.5" cy="0.5" r="0.72"><stop offset="0" stop-color="#000000" stop-opacity="0"/><stop offset="0.62" stop-color="#000000" stop-opacity="0"/><stop offset="1" stop-color="#07080c" stop-opacity="0.9"/></radialGradient><radialGradient id="cardo"><stop offset="0" stop-color="#9a7a3e" stop-opacity="0.9"/><stop offset="1" stop-color="#5f4a24" stop-opacity="0.3"/></radialGradient></defs>
<rect width="600" height="600" fill="#14161d"/>
<rect width="600" height="600" fill="url(#vin)"/>
<g><animateTransform attributeName="transform" type="rotate" values="0 300 300;360 300 300" dur="140s" repeatCount="indefinite"/>
<circle cx="300" cy="300" r="240" fill="none" stroke="#5a5a64" stroke-width="2.6" opacity="0.95"/>
<circle cx="300" cy="300" r="234.5" fill="none" stroke="#43434a" stroke-width="1.1" opacity="0.75"/>
<line x1="519.0" y1="300.0" x2="533.0" y2="300.0" stroke="#5a5a64" stroke-width="2.4" opacity="0.95"/>
<line x1="523.1" y1="329.4" x2="531.0" y2="330.4" stroke="#43434a" stroke-width="1.3" opacity="0.7"/>
<line x1="517.3" y1="358.2" x2="525.1" y2="360.3" stroke="#43434a" stroke-width="1.3" opacity="0.7"/>
<line x1="507.9" y1="386.1" x2="515.3" y2="389.2" stroke="#43434a" stroke-width="1.3" opacity="0.7"/>
<line x1="489.7" y1="409.5" x2="501.8" y2="416.5" stroke="#5a5a64" stroke-width="2.4" opacity="0.95"/>
<line x1="478.5" y1="437.0" x2="484.9" y2="441.8" stroke="#43434a" stroke-width="1.3" opacity="0.7"/>
<line x1="459.1" y1="459.1" x2="464.8" y2="464.8" stroke="#43434a" stroke-width="1.3" opacity="0.7"/>
<line x1="437.0" y1="478.5" x2="441.8" y2="484.9" stroke="#43434a" stroke-width="1.3" opacity="0.7"/>
<line x1="409.5" y1="489.7" x2="416.5" y2="501.8" stroke="#5a5a64" stroke-width="2.4" opacity="0.95"/>
<line x1="386.1" y1="507.9" x2="389.2" y2="515.3" stroke="#43434a" stroke-width="1.3" opacity="0.7"/>
<line x1="358.2" y1="517.3" x2="360.3" y2="525.1" stroke="#43434a" stroke-width="1.3" opacity="0.7"/>
<line x1="329.4" y1="523.1" x2="330.4" y2="531.0" stroke="#43434a" stroke-width="1.3" opacity="0.7"/>
<line x1="300.0" y1="519.0" x2="300.0" y2="533.0" stroke="#5a5a64" stroke-width="2.4" opacity="0.95"/>
<line x1="270.6" y1="523.1" x2="269.6" y2="531.0" stroke="#43434a" stroke-width="1.3" opacity="0.7"/>
<line x1="241.8" y1="517.3" x2="239.7" y2="525.1" stroke="#43434a" stroke-width="1.3" opacity="0.7"/>
<line x1="213.9" y1="507.9" x2="210.8" y2="515.3" stroke="#43434a" stroke-width="1.3" opacity="0.7"/>
<line x1="190.5" y1="489.7" x2="183.5" y2="501.8" stroke="#5a5a64" stroke-width="2.4" opacity="0.95"/>
<line x1="163.0" y1="478.5" x2="158.2" y2="484.9" stroke="#43434a" stroke-width="1.3" opacity="0.7"/>
<line x1="140.9" y1="459.1" x2="135.2" y2="464.8" stroke="#43434a" stroke-width="1.3" opacity="0.7"/>
<line x1="121.5" y1="437.0" x2="115.1" y2="441.8" stroke="#43434a" stroke-width="1.3" opacity="0.7"/>
<line x1="110.3" y1="409.5" x2="98.2" y2="416.5" stroke="#5a5a64" stroke-width="2.4" opacity="0.95"/>
<line x1="92.1" y1="386.1" x2="84.7" y2="389.2" stroke="#43434a" stroke-width="1.3" opacity="0.7"/>
<line x1="82.7" y1="358.2" x2="74.9" y2="360.3" stroke="#43434a" stroke-width="1.3" opacity="0.7"/>
<line x1="76.9" y1="329.4" x2="69.0" y2="330.4" stroke="#43434a" stroke-width="1.3" opacity="0.7"/>
<line x1="81.0" y1="300.0" x2="67.0" y2="300.0" stroke="#5a5a64" stroke-width="2.4" opacity="0.95"/>
<line x1="76.9" y1="270.6" x2="69.0" y2="269.6" stroke="#43434a" stroke-width="1.3" opacity="0.7"/>
<line x1="82.7" y1="241.8" x2="74.9" y2="239.7" stroke="#43434a" stroke-width="1.3" opacity="0.7"/>
<line x1="92.1" y1="213.9" x2="84.7" y2="210.8" stroke="#43434a" stroke-width="1.3" opacity="0.7"/>
<line x1="110.3" y1="190.5" x2="98.2" y2="183.5" stroke="#5a5a64" stroke-width="2.4" opacity="0.95"/>
<line x1="121.5" y1="163.0" x2="115.1" y2="158.2" stroke="#43434a" stroke-width="1.3" opacity="0.7"/>
<line x1="140.9" y1="140.9" x2="135.2" y2="135.2" stroke="#43434a" stroke-width="1.3" opacity="0.7"/>
<line x1="163.0" y1="121.5" x2="158.2" y2="115.1" stroke="#43434a" stroke-width="1.3" opacity="0.7"/>
<line x1="190.5" y1="110.3" x2="183.5" y2="98.2" stroke="#5a5a64" stroke-width="2.4" opacity="0.95"/>
<line x1="213.9" y1="92.1" x2="210.8" y2="84.7" stroke="#43434a" stroke-width="1.3" opacity="0.7"/>
<line x1="241.8" y1="82.7" x2="239.7" y2="74.9" stroke="#43434a" stroke-width="1.3" opacity="0.7"/>
<line x1="270.6" y1="76.9" x2="269.6" y2="69.0" stroke="#43434a" stroke-width="1.3" opacity="0.7"/>
<line x1="300.0" y1="81.0" x2="300.0" y2="67.0" stroke="#5a5a64" stroke-width="2.4" opacity="0.95"/>
<line x1="329.4" y1="76.9" x2="330.4" y2="69.0" stroke="#43434a" stroke-width="1.3" opacity="0.7"/>
<line x1="358.2" y1="82.7" x2="360.3" y2="74.9" stroke="#43434a" stroke-width="1.3" opacity="0.7"/>
<line x1="386.1" y1="92.1" x2="389.2" y2="84.7" stroke="#43434a" stroke-width="1.3" opacity="0.7"/>
<line x1="409.5" y1="110.3" x2="416.5" y2="98.2" stroke="#5a5a64" stroke-width="2.4" opacity="0.95"/>
<line x1="437.0" y1="121.5" x2="441.8" y2="115.1" stroke="#43434a" stroke-width="1.3" opacity="0.7"/>
<line x1="459.1" y1="140.9" x2="464.8" y2="135.2" stroke="#43434a" stroke-width="1.3" opacity="0.7"/>
<line x1="478.5" y1="163.0" x2="484.9" y2="158.2" stroke="#43434a" stroke-width="1.3" opacity="0.7"/>
<line x1="489.7" y1="190.5" x2="501.8" y2="183.5" stroke="#5a5a64" stroke-width="2.4" opacity="0.95"/>
<line x1="507.9" y1="213.9" x2="515.3" y2="210.8" stroke="#43434a" stroke-width="1.3" opacity="0.7"/>
<line x1="517.3" y1="241.8" x2="525.1" y2="239.7" stroke="#43434a" stroke-width="1.3" opacity="0.7"/>
<line x1="523.1" y1="270.6" x2="531.0" y2="269.6" stroke="#43434a" stroke-width="1.3" opacity="0.7"/>
<polygon points="533.0,292.5 540.5,300.0 533.0,307.5 525.5,300.0" fill="url(#cardo)" stroke="#8f6a36" stroke-width="0.8"/>
<circle cx="533.0" cy="300.0" r="2.2" fill="none" stroke="#8f6a36" stroke-width="0.9" opacity="0.8"/>
<polygon points="300.0,525.5 307.5,533.0 300.0,540.5 292.5,533.0" fill="url(#cardo)" stroke="#8f6a36" stroke-width="0.8"/>
<circle cx="300.0" cy="533.0" r="2.2" fill="none" stroke="#8f6a36" stroke-width="0.9" opacity="0.8"/>
<polygon points="67.0,292.5 74.5,300.0 67.0,307.5 59.5,300.0" fill="url(#cardo)" stroke="#8f6a36" stroke-width="0.8"/>
<circle cx="67.0" cy="300.0" r="2.2" fill="none" stroke="#8f6a36" stroke-width="0.9" opacity="0.8"/>
<polygon points="300.0,59.5 307.5,67.0 300.0,74.5 292.5,67.0" fill="url(#cardo)" stroke="#8f6a36" stroke-width="0.8"/>
<circle cx="300.0" cy="67.0" r="2.2" fill="none" stroke="#8f6a36" stroke-width="0.9" opacity="0.8"/>
</g>
<circle cx="300" cy="300" r="210" fill="none" stroke="#43434a" stroke-width="1.2" opacity="0.55"/>
<g><animateTransform attributeName="transform" type="rotate" values="0 300 300;-360 300 300" dur="200s" repeatCount="indefinite"/>
<g transform="translate(499.0,300.0) rotate(90.0)" stroke="#8a7038" stroke-width="1.6" opacity="0.82" stroke-linecap="round" stroke-linejoin="round"><polygon points="0,-4.5 3.2,0 0,4.5 -3.2,0" fill="none"/></g>
<g transform="translate(492.2,351.5) rotate(105.0)" stroke="#8a7038" stroke-width="1.6" opacity="0.82" stroke-linecap="round" stroke-linejoin="round"><line x1="0" y1="-4.5" x2="0" y2="4.5"/><circle cx="-3.6" cy="0" r="1.3" fill="#8a7038" stroke="none"/><circle cx="3.6" cy="0" r="1.3" fill="#8a7038" stroke="none"/></g>
<g transform="translate(472.3,399.5) rotate(120.0)" stroke="#8a7038" stroke-width="1.6" opacity="0.82" stroke-linecap="round" stroke-linejoin="round"><polygon points="0,-4.5 3.8,3.5 -3.8,3.5" fill="none"/></g>
<g transform="translate(440.7,440.7) rotate(135.0)" stroke="#8a7038" stroke-width="1.6" opacity="0.82" stroke-linecap="round" stroke-linejoin="round"><path d="M -3.2 -4.5 Q 3.4 -2 -3.2 0 Q 3.4 2 -3.2 4.5" fill="none"/></g>
<g transform="translate(399.5,472.3) rotate(150.0)" stroke="#8a7038" stroke-width="1.6" opacity="0.82" stroke-linecap="round" stroke-linejoin="round"><polygon points="0,-4.5 3.2,0 0,4.5 -3.2,0" fill="none"/></g>
<g transform="translate(351.5,492.2) rotate(165.0)" stroke="#8a7038" stroke-width="1.6" opacity="0.82" stroke-linecap="round" stroke-linejoin="round"><line x1="0" y1="-4.5" x2="0" y2="4.5"/><circle cx="-3.6" cy="0" r="1.3" fill="#8a7038" stroke="none"/><circle cx="3.6" cy="0" r="1.3" fill="#8a7038" stroke="none"/></g>
<g transform="translate(300.0,499.0) rotate(180.0)" stroke="#8a7038" stroke-width="1.6" opacity="0.82" stroke-linecap="round" stroke-linejoin="round"><polygon points="0,-4.5 3.8,3.5 -3.8,3.5" fill="none"/></g>
<g transform="translate(248.5,492.2) rotate(195.0)" stroke="#8a7038" stroke-width="1.6" opacity="0.82" stroke-linecap="round" stroke-linejoin="round"><path d="M -3.2 -4.5 Q 3.4 -2 -3.2 0 Q 3.4 2 -3.2 4.5" fill="none"/></g>
<g transform="translate(200.5,472.3) rotate(210.0)" stroke="#8a7038" stroke-width="1.6" opacity="0.82" stroke-linecap="round" stroke-linejoin="round"><polygon points="0,-4.5 3.2,0 0,4.5 -3.2,0" fill="none"/></g>
<g transform="translate(159.3,440.7) rotate(225.0)" stroke="#8a7038" stroke-width="1.6" opacity="0.82" stroke-linecap="round" stroke-linejoin="round"><line x1="0" y1="-4.5" x2="0" y2="4.5"/><circle cx="-3.6" cy="0" r="1.3" fill="#8a7038" stroke="none"/><circle cx="3.6" cy="0" r="1.3" fill="#8a7038" stroke="none"/></g>
<g transform="translate(127.7,399.5) rotate(240.0)" stroke="#8a7038" stroke-width="1.6" opacity="0.82" stroke-linecap="round" stroke-linejoin="round"><polygon points="0,-4.5 3.8,3.5 -3.8,3.5" fill="none"/></g>
<g transform="translate(107.8,351.5) rotate(255.0)" stroke="#8a7038" stroke-width="1.6" opacity="0.82" stroke-linecap="round" stroke-linejoin="round"><path d="M -3.2 -4.5 Q 3.4 -2 -3.2 0 Q 3.4 2 -3.2 4.5" fill="none"/></g>
<g transform="translate(101.0,300.0) rotate(270.0)" stroke="#8a7038" stroke-width="1.6" opacity="0.82" stroke-linecap="round" stroke-linejoin="round"><polygon points="0,-4.5 3.2,0 0,4.5 -3.2,0" fill="none"/></g>
<g transform="translate(107.8,248.5) rotate(285.0)" stroke="#8a7038" stroke-width="1.6" opacity="0.82" stroke-linecap="round" stroke-linejoin="round"><line x1="0" y1="-4.5" x2="0" y2="4.5"/><circle cx="-3.6" cy="0" r="1.3" fill="#8a7038" stroke="none"/><circle cx="3.6" cy="0" r="1.3" fill="#8a7038" stroke="none"/></g>
<g transform="translate(127.7,200.5) rotate(300.0)" stroke="#8a7038" stroke-width="1.6" opacity="0.82" stroke-linecap="round" stroke-linejoin="round"><polygon points="0,-4.5 3.8,3.5 -3.8,3.5" fill="none"/></g>
<g transform="translate(159.3,159.3) rotate(315.0)" stroke="#8a7038" stroke-width="1.6" opacity="0.82" stroke-linecap="round" stroke-linejoin="round"><path d="M -3.2 -4.5 Q 3.4 -2 -3.2 0 Q 3.4 2 -3.2 4.5" fill="none"/></g>
<g transform="translate(200.5,127.7) rotate(330.0)" stroke="#8a7038" stroke-width="1.6" opacity="0.82" stroke-linecap="round" stroke-linejoin="round"><polygon points="0,-4.5 3.2,0 0,4.5 -3.2,0" fill="none"/></g>
<g transform="translate(248.5,107.8) rotate(345.0)" stroke="#8a7038" stroke-width="1.6" opacity="0.82" stroke-linecap="round" stroke-linejoin="round"><line x1="0" y1="-4.5" x2="0" y2="4.5"/><circle cx="-3.6" cy="0" r="1.3" fill="#8a7038" stroke="none"/><circle cx="3.6" cy="0" r="1.3" fill="#8a7038" stroke="none"/></g>
<g transform="translate(300.0,101.0) rotate(360.0)" stroke="#8a7038" stroke-width="1.6" opacity="0.82" stroke-linecap="round" stroke-linejoin="round"><polygon points="0,-4.5 3.8,3.5 -3.8,3.5" fill="none"/></g>
<g transform="translate(351.5,107.8) rotate(375.0)" stroke="#8a7038" stroke-width="1.6" opacity="0.82" stroke-linecap="round" stroke-linejoin="round"><path d="M -3.2 -4.5 Q 3.4 -2 -3.2 0 Q 3.4 2 -3.2 4.5" fill="none"/></g>
<g transform="translate(399.5,127.7) rotate(390.0)" stroke="#8a7038" stroke-width="1.6" opacity="0.82" stroke-linecap="round" stroke-linejoin="round"><polygon points="0,-4.5 3.2,0 0,4.5 -3.2,0" fill="none"/></g>
<g transform="translate(440.7,159.3) rotate(405.0)" stroke="#8a7038" stroke-width="1.6" opacity="0.82" stroke-linecap="round" stroke-linejoin="round"><line x1="0" y1="-4.5" x2="0" y2="4.5"/><circle cx="-3.6" cy="0" r="1.3" fill="#8a7038" stroke="none"/><circle cx="3.6" cy="0" r="1.3" fill="#8a7038" stroke="none"/></g>
<g transform="translate(472.3,200.5) rotate(420.0)" stroke="#8a7038" stroke-width="1.6" opacity="0.82" stroke-linecap="round" stroke-linejoin="round"><polygon points="0,-4.5 3.8,3.5 -3.8,3.5" fill="none"/></g>
<g transform="translate(492.2,248.5) rotate(435.0)" stroke="#8a7038" stroke-width="1.6" opacity="0.82" stroke-linecap="round" stroke-linejoin="round"><path d="M -3.2 -4.5 Q 3.4 -2 -3.2 0 Q 3.4 2 -3.2 4.5" fill="none"/></g>
</g>
<circle cx="300" cy="300" r="150" fill="none" stroke="#43434a" stroke-width="1.4" opacity="0.5"/>
<g><animateTransform attributeName="transform" type="rotate" values="0 300 300;-360 300 300" dur="160s" repeatCount="indefinite"/>
<g transform="translate(470.0,300.0) rotate(90.0)" stroke="#8f6a36" fill="#8f6a36" stroke-width="1.9" opacity="0.85" stroke-linecap="round" stroke-linejoin="round"><line x1="-3" y1="-4" x2="-3" y2="4"/><line x1="3" y1="-4" x2="3" y2="4"/></g>
<g transform="translate(457.1,365.1) rotate(112.5)" stroke="#8f6a36" fill="#8f6a36" stroke-width="1.9" opacity="0.85" stroke-linecap="round" stroke-linejoin="round"><path d="M -4.5 0 A 4.5 4.5 0 0 1 4.5 0" fill="none"/><line x1="0" y1="-2" x2="0" y2="5"/></g>
<g transform="translate(420.2,420.2) rotate(135.0)" stroke="#8f6a36" fill="#8f6a36" stroke-width="1.9" opacity="0.85" stroke-linecap="round" stroke-linejoin="round"><polygon points="0,-5 3,-1 0,3 -3,-1" fill="none"/><line x1="0" y1="3" x2="0" y2="6"/></g>
<g transform="translate(365.1,457.1) rotate(157.5)" stroke="#8f6a36" fill="#8f6a36" stroke-width="1.9" opacity="0.85" stroke-linecap="round" stroke-linejoin="round"><line x1="0" y1="5" x2="0" y2="-3"/><circle cx="0" cy="-6.5" r="1.7" stroke="none"/></g>
<g transform="translate(300.0,470.0) rotate(180.0)" stroke="#8f6a36" fill="#8f6a36" stroke-width="1.9" opacity="0.85" stroke-linecap="round" stroke-linejoin="round"><path d="M -4.5 0 A 4.5 4.5 0 0 1 4.5 0" fill="none"/><line x1="0" y1="-2" x2="0" y2="5"/></g>
<g transform="translate(234.9,457.1) rotate(202.5)" stroke="#8f6a36" fill="#8f6a36" stroke-width="1.9" opacity="0.85" stroke-linecap="round" stroke-linejoin="round"><line x1="-3" y1="-4" x2="-3" y2="4"/><line x1="3" y1="-4" x2="3" y2="4"/></g>
<g transform="translate(179.8,420.2) rotate(225.0)" stroke="#8f6a36" fill="#8f6a36" stroke-width="1.9" opacity="0.85" stroke-linecap="round" stroke-linejoin="round"><line x1="0" y1="5" x2="0" y2="-3"/><circle cx="0" cy="-6.5" r="1.7" stroke="none"/></g>
<g transform="translate(142.9,365.1) rotate(247.5)" stroke="#8f6a36" fill="#8f6a36" stroke-width="1.9" opacity="0.85" stroke-linecap="round" stroke-linejoin="round"><polygon points="0,-5 3,-1 0,3 -3,-1" fill="none"/><line x1="0" y1="3" x2="0" y2="6"/></g>
<g transform="translate(130.0,300.0) rotate(270.0)" stroke="#8f6a36" fill="#8f6a36" stroke-width="1.9" opacity="0.85" stroke-linecap="round" stroke-linejoin="round"><line x1="-3" y1="-4" x2="-3" y2="4"/><line x1="3" y1="-4" x2="3" y2="4"/></g>
<g transform="translate(142.9,234.9) rotate(292.5)" stroke="#8f6a36" fill="#8f6a36" stroke-width="1.9" opacity="0.85" stroke-linecap="round" stroke-linejoin="round"><path d="M -4.5 0 A 4.5 4.5 0 0 1 4.5 0" fill="none"/><line x1="0" y1="-2" x2="0" y2="5"/></g>
<g transform="translate(179.8,179.8) rotate(315.0)" stroke="#8f6a36" fill="#8f6a36" stroke-width="1.9" opacity="0.85" stroke-linecap="round" stroke-linejoin="round"><polygon points="0,-5 3,-1 0,3 -3,-1" fill="none"/><line x1="0" y1="3" x2="0" y2="6"/></g>
<g transform="translate(234.9,142.9) rotate(337.5)" stroke="#8f6a36" fill="#8f6a36" stroke-width="1.9" opacity="0.85" stroke-linecap="round" stroke-linejoin="round"><line x1="0" y1="5" x2="0" y2="-3"/><circle cx="0" cy="-6.5" r="1.7" stroke="none"/></g>
<g transform="translate(300.0,130.0) rotate(360.0)" stroke="#8f6a36" fill="#8f6a36" stroke-width="1.9" opacity="0.85" stroke-linecap="round" stroke-linejoin="round"><path d="M -4.5 0 A 4.5 4.5 0 0 1 4.5 0" fill="none"/><line x1="0" y1="-2" x2="0" y2="5"/></g>
<g transform="translate(365.1,142.9) rotate(382.5)" stroke="#8f6a36" fill="#8f6a36" stroke-width="1.9" opacity="0.85" stroke-linecap="round" stroke-linejoin="round"><line x1="-3" y1="-4" x2="-3" y2="4"/><line x1="3" y1="-4" x2="3" y2="4"/></g>
<g transform="translate(420.2,179.8) rotate(405.0)" stroke="#8f6a36" fill="#8f6a36" stroke-width="1.9" opacity="0.85" stroke-linecap="round" stroke-linejoin="round"><line x1="0" y1="5" x2="0" y2="-3"/><circle cx="0" cy="-6.5" r="1.7" stroke="none"/></g>
<g transform="translate(457.1,234.9) rotate(427.5)" stroke="#8f6a36" fill="#8f6a36" stroke-width="1.9" opacity="0.85" stroke-linecap="round" stroke-linejoin="round"><polygon points="0,-5 3,-1 0,3 -3,-1" fill="none"/><line x1="0" y1="3" x2="0" y2="6"/></g>
</g>
<g><animateTransform attributeName="transform" type="rotate" values="0 300 300;360 300 300" dur="70s" repeatCount="indefinite"/>
<circle cx="300" cy="300" r="118" fill="none" stroke="#43434a" stroke-width="1.3" opacity="0.45" stroke-dasharray="2.5 11"/>
<circle cx="418" cy="300" r="2.4" fill="#8f6a36" opacity="0.85"/>
<circle cx="182" cy="300" r="1.8" fill="#8f6a36" opacity="0.7"/>
</g>
<polygon points="300,182 197,365 403,365" fill="none" stroke="url(#tri)" stroke-width="2.0"/><ellipse cx="300" cy="362" rx="92" ry="13" fill="url(#floor)"/><circle cx="300" cy="300" r="120" fill="url(#halo2)"/><circle cx="300" cy="300" r="92" fill="url(#glow)"><animate attributeName="opacity" values="0.5;0.8;0.55;0.5" keyTimes="0;0.35;0.7;1" dur="6.5s" repeatCount="indefinite"/></circle><g id="corpoReact"><polygon points="308.0,300.0 285.0,339.8 239.0,339.8 216.0,300.0 239.0,260.2 285.0,260.2" fill="url(#fl)"/><g><animateTransform attributeName="transform" type="translate" values="0 0;6 -2;0 0" dur="4.5s" repeatCount="indefinite" calcMode="spline" keySplines="0.4 0 0.6 1;0.4 0 0.6 1"/><g transform="rotate(12 323 288)"><rect x="311.0" y="276.0" width="24" height="24" fill="url(#fl)" opacity="1"><animate attributeName="opacity" values="1;0.50;1" keyTimes="0;0.5;1" dur="4.5s" repeatCount="indefinite"/></rect></g></g><g><animateTransform attributeName="transform" type="translate" values="0 0;9 -3;0 0" dur="4.5s" repeatCount="indefinite" calcMode="spline" keySplines="0.4 0 0.6 1;0.4 0 0.6 1"/><g transform="rotate(-18 353 276)"><rect x="344.0" y="267.0" width="18" height="18" fill="url(#fl)" opacity="1"><animate attributeName="opacity" values="1;0.50;1" keyTimes="0;0.5;1" dur="4.5s" repeatCount="indefinite"/></rect></g></g><g><animateTransform attributeName="transform" type="translate" values="0 0;12 2;0 0" dur="4.5s" repeatCount="indefinite" calcMode="spline" keySplines="0.4 0 0.6 1;0.4 0 0.6 1"/><g transform="rotate(25 377 309)"><rect x="370.5" y="302.5" width="13" height="13" fill="#3d8f6d" opacity="0.9"><animate attributeName="opacity" values="0.9;0.45;0.9" keyTimes="0;0.5;1" dur="4.5s" repeatCount="indefinite"/></rect></g></g><g><animateTransform attributeName="transform" type="translate" values="0 0;15 -3;0 0" dur="4.5s" repeatCount="indefinite" calcMode="spline" keySplines="0.4 0 0.6 1;0.4 0 0.6 1"/><g transform="rotate(-10 395 293)"><rect x="390.5" y="288.5" width="9" height="9" fill="#3f9471" opacity="0.72"><animate attributeName="opacity" values="0.72;0.36;0.72" keyTimes="0;0.5;1" dur="4.5s" repeatCount="indefinite"/></rect></g></g></g></svg>