<?xml version="1.0" encoding="UTF-8"?>
<svg xmlns="http://www.w3.org/2000/svg" viewBox="0 0 600 600" width="600" height="600">
<defs><linearGradient id="fl" gradientUnits="userSpaceOnUse" x1="300" y1="414" x2="300" y2="186"><stop offset="0" stop-color="#9f554d"/><stop offset="0.5" stop-color="#a85c54"/><stop offset="1" stop-color="#b1635b"/></linearGradient><linearGradient id="fl2" gradientUnits="userSpaceOnUse" x1="300" y1="414" x2="300" y2="186"><stop offset="0" stop-color="#a85c54"/><stop offset="1" stop-color="#b1635b"/></linearGradient><radialGradient id="glow2"><stop offset="0" stop-color="#bc766e" stop-opacity="0.55"/><stop offset="1" stop-color="#bc766e" stop-opacity="0"/></radialGradient><linearGradient id="tri" x1="0" y1="1" x2="0" y2="0"><stop offset="0" stop-color="#a05247" stop-opacity="0.42"/><stop offset="0.55" stop-color="#72332c" stop-opacity="0.26"/><stop offset="1" stop-color="#52241f" stop-opacity="0.14"/></linearGradient><radialGradient id="glow"><stop offset="0" stop-color="#99433a" stop-opacity="0.40"/><stop offset="0.5" stop-color="#723028" stop-opacity="0.18"/><stop offset="1" stop-color="#723028" stop-opacity="0"/></radialGradient><radialGradient id="halo2"><stop offset="0" stop-color="#351813" stop-opacity="0.46"/><stop offset="0.6" stop-color="#26100d" stop-opacity="0.16"/><stop offset="1" stop-color="#26100d" stop-opacity="0"/></radialGradient><radialGradient id="floor"><stop offset="0" stop-color="#99433a" stop-opacity="0.34"/><stop offset="1" stop-color="#99433a" stop-opacity="0"/></radialGradient><radialGradient id="vin" cx="0.5" cy="0.5" r="0.72"><stop offset="0" stop-color="#000000" stop-opacity="0"/><stop offset="0.62" stop-color="#000000" stop-opacity="0"/><stop offset="1" stop-color="#07080c" stop-opacity="0.9"/></radialGradient><radialGradient id="cardo"><stop offset="0" stop-color="#9a7a3e" stop-opacity="0.9"/><stop offset="1" stop-color="#5f4a24" stop-opacity="0.3"/></radialGradient></defs>
<rect width="600" height="600" fill="#14161d"/>
<rect width="600" height="600" fill="url(#vin)"/>
<g><animateTransform attributeName="transform" type="rotate" values="0 300 300;360 300 300" dur="140s" repeatCount="indefinite"/>
<circle cx="300" cy="300" r="240" fill="none" stroke="#5a5a64" stroke-width="2.6" opacity="0.95"/>
<circle cx="300" cy="300" r="234.5" fill="none" stroke="#43434a" stroke-width="1.1" opacity="0.75"/>
<line x1="519.0" y1="300.0" x2="533.0" y2="300.0" stroke="#5a5a64" stroke-width="2.4" opacity="0.95"/>
<line x1="523.1" y1="329.4" x2="531.0" y2="330.4" stroke="#43434a" stroke-width="1.3" opacity="0.7"/>
<line x1="517.3" y1="358.2" x2="525.1" y2="360.3" stroke="#43434a" stroke-width="1.3" opacity="0.7"/>
<line x1="507.9" y1="386.1" x2="515.3" y2="389.2" stroke="#43434a" stroke-width="1.3" opacity="0.7"/>
<line x1="489.7" y1="409.5" x2="501.8" y2="416.5" stroke="#5a5a64" stroke-width="2.4" opacity="0.95"/>
<line x1="478.5" y1="437.0" x2="484.9" y2="441.8" stroke="#43434a" stroke-width="1.3" opacity="0.7"/>
<line x1="459.1" y1="459.1" x2="464.8" y2="464.8" stroke="#43434a" stroke-width="1.3" opacity="0.7"/>
<line x1="437.0" y1="478.5" x2="441.8" y2="484.9" stroke="#43434a" stroke-width="1.3" opacity="0.7"/>
<line x1="409.5" y1="489.7" x2="416.5" y2="501.8" stroke="#5a5a64" stroke-width="2.4" opacity="0.95"/>
<line x1="386.1" y1="507.9" x2="389.2" y2="515.3" stroke="#43434a" stroke-width="1.3" opacity="0.7"/>
<line x1="358.2" y1="517.3" x2="360.3" y2="525.1" stroke="#43434a" stroke-width="1.3" opacity="0.7"/>
<line x1="329.4" y1="523.1" x2="330.4" y2="531.0" stroke="#43434a" stroke-width="1.3" opacity="0.7"/>
<line x1="300.0" y1="519.0" x2="300.0" y2="533.0" stroke="#5a5a64" stroke-width="2.4" opacity="0.95"/>
<line x1="270.6" y1="523.1" x2="269.6" y2="531.0" stroke="#43434a" stroke-width="1.3" opacity="0.7"/>
<line x1="241.8" y1="517.3" x2="239.7" y2="525.1" stroke="#43434a" stroke-width="1.3" opacity="0.7"/>
<line x1="213.9" y1="507.9" x2="210.8" y2="515.3" stroke="#43434a" stroke-width="1.3" opacity="0.7"/>
<line x1="190.5" y1="489.7" x2="183.5" y2="501.8" stroke="#5a5a64" stroke-width="2.4" opacity="0.95"/>
<line x1="163.0" y1="478.5" x2="158.2" y2="484.9" stroke="#43434a" stroke-width="1.3" opacity="0.7"/>
<line x1="140.9" y1="459.1" x2="135.2" y2="464.8" stroke="#43434a" stroke-width="1.3" opacity="0.7"/>
<line x1="121.5" y1="437.0" x2="115.1" y2="441.8" stroke="#43434a" stroke-width="1.3" opacity="0.7"/>
<line x1="110.3" y1="409.5" x2="98.2" y2="416.5" stroke="#5a5a64" stroke-width="2.4" opacity="0.95"/>
<line x1="92.1" y1="386.1" x2="84.7" y2="389.2" stroke="#43434a" stroke-width="1.3" opacity="0.7"/>
<line x1="82.7" y1="358.2" x2="74.9" y2="360.3" stroke="#43434a" stroke-width="1.3" opacity="0.7"/>
<line x1="76.9" y1="329.4" x2="69.0" y2="330.4" stroke="#43434a" stroke-width="1.3" opacity="0.7"/>
<line x1="81.0" y1="300.0" x2="67.0" y2="300.0" stroke="#5a5a64" stroke-width="2.4" opacity="0.95"/>
<line x1="76.9" y1="270.6" x2="69.0" y2="269.6" stroke="#43434a" stroke-width="1.3" opacity="0.7"/>
<line x1="82.7" y1="241.8" x2="74.9" y2="239.7" stroke="#43434a" stroke-width="1.3" opacity="0.7"/>
<line x1="92.1" y1="213.9" x2="84.7" y2="210.8" stroke="#43434a" stroke-width="1.3" opacity="0.7"/>
<line x1="110.3" y1="190.5" x2="98.2" y2="183.5" stroke="#5a5a64" stroke-width="2.4" opacity="0.95"/>
<line x1="121.5" y1="163.0" x2="115.1" y2="158.2" stroke="#43434a" stroke-width="1.3" opacity="0.7"/>
<line x1="140.9" y1="140.9" x2="135.2" y2="135.2" stroke="#43434a" stroke-width="1.3" opacity="0.7"/>
<line x1="163.0" y1="121.5" x2="158.2" y2="115.1" stroke="#43434a" stroke-width="1.3" opacity="0.7"/>
<line x1="190.5" y1="110.3" x2="183.5" y2="98.2" stroke="#5a5a64" stroke-width="2.4" opacity="0.95"/>
<line x1="213.9" y1="92.1" x2="210.8" y2="84.7" stroke="#43434a" stroke-width="1.3" opacity="0.7"/>
<line x1="241.8" y1="82.7" x2="239.7" y2="74.9" stroke="#43434a" stroke-width="1.3" opacity="0.7"/>
<line x1="270.6" y1="76.9" x2="269.6" y2="69.0" stroke="#43434a" stroke-width="1.3" opacity="0.7"/>
<line x1="300.0" y1="81.0" x2="300.0" y2="67.0" stroke="#5a5a64" stroke-width="2.4" opacity="0.95"/>
<line x1="329.4" y1="76.9" x2="330.4" y2="69.0" stroke="#43434a" stroke-width="1.3" opacity="0.7"/>
<line x1="358.2" y1="82.7" x2="360.3" y2="74.9" stroke="#43434a" stroke-width="1.3" opacity="0.7"/>
<line x1="386.1" y1="92.1" x2="389.2" y2="84.7" stroke="#43434a" stroke-width="1.3" opacity="0.7"/>
<line x1="409.5" y1="110.3" x2="416.5" y2="98.2" stroke="#5a5a64" stroke-width="2.4" opacity="0.95"/>
<line x1="437.0" y1="121.5" x2="441.8" y2="115.1" stroke="#43434a" stroke-width="1.3" opacity="0.7"/>
<line x1="459.1" y1="140.9" x2="464.8" y2="135.2" stroke="#43434a" stroke-width="1.3" opacity="0.7"/>
<line x1="478.5" y1="163.0" x2="484.9" y2="158.2" stroke="#43434a" stroke-width="1.3" opacity="0.7"/>
<line x1="489.7" y1="190.5" x2="501.8" y2="183.5" stroke="#5a5a64" stroke-width="2.4" opacity="0.95"/>
<line x1="507.9" y1="213.9" x2="515.3" y2="210.8" stroke="#43434a" stroke-width="1.3" opacity="0.7"/>
<line x1="517.3" y1="241.8" x2="525.1" y2="239.7" stroke="#43434a" stroke-width="1.3" opacity="0.7"/>
<line x1="523.1" y1="270.6" x2="531.0" y2="269.6" stroke="#43434a" stroke-width="1.3" opacity="0.7"/>
<polygon points="533.0,292.5 540.5,300.0 533.0,307.5 525.5,300.0" fill="url(#cardo)" stroke="#8f6a36" stroke-width="0.8"/>
<circle cx="533.0" cy="300.0" r="2.2" fill="none" stroke="#8f6a36" stroke-width="0.9" opacity="0.8"/>
<polygon points="300.0,525.5 307.5,533.0 300.0,540.5 292.5,533.0" fill="url(#cardo)" stroke="#8f6a36" stroke-width="0.8"/>
<circle cx="300.0" cy="533.0" r="2.2" fill="none" stroke="#8f6a36" stroke-width="0.9" opacity="0.8"/>
<polygon points="67.0,292.5 74.5,300.0 67.0,307.5 59.5,300.0" fill="url(#cardo)" stroke="#8f6a36" stroke-width="0.8"/>
<circle cx="67.0" cy="300.0" r="2.2" fill="none" stroke="#8f6a36" stroke-width="0.9" opacity="0.8"/>
<polygon points="300.0,59.5 307.5,67.0 300.0,74.5 292.5,67.0" fill="url(#cardo)" stroke="#8f6a36" stroke-width="0.8"/>
<circle cx="300.0" cy="67.0" r="2.2" fill="none" stroke="#8f6a36" stroke-width="0.9" opacity="0.8"/>
</g>
<circle cx="300" cy="300" r="210" fill="none" stroke="#43434a" stroke-width="1.2" opacity="0.55"/>
<g><animateTransform attributeName="transform" type="rotate" values="0 300 300;-360 300 300" dur="200s" repeatCount="indefinite"/>
<g transform="translate(499.0,300.0) rotate(90.0)" stroke="#8a7038" stroke-width="1.6" opacity="0.82" stroke-linecap="round" stroke-linejoin="round"><polygon points="0,-4.5 3.2,0 0,4.5 -3.2,0" fill="none"/></g>
<g transform="translate(492.2,351.5) rotate(105.0)" stroke="#8a7038" stroke-width="1.6" opacity="0.82" stroke-linecap="round" stroke-linejoin="round"><line x1="0" y1="-4.5" x2="0" y2="4.5"/><circle cx="-3.6" cy="0" r="1.3" fill="#8a7038" stroke="none"/><circle cx="3.6" cy="0" r="1.3" fill="#8a7038" stroke="none"/></g>
<g transform="translate(472.3,399.5) rotate(120.0)" stroke="#8a7038" stroke-width="1.6" opacity="0.82" stroke-linecap="round" stroke-linejoin="round"><polygon points="0,-4.5 3.8,3.5 -3.8,3.5" fill="none"/></g>
<g transform="translate(440.7,440.7) rotate(135.0)" stroke="#8a7038" stroke-width="1.6" opacity="0.82" stroke-linecap="round" stroke-linejoin="round"><path d="M -3.2 -4.5 Q 3.4 -2 -3.2 0 Q 3.4 2 -3.2 4.5" fill="none"/></g>
<g transform="translate(399.5,472.3) rotate(150.0)" stroke="#8a7038" stroke-width="1.6" opacity="0.82" stroke-linecap="round" stroke-linejoin="round"><polygon points="0,-4.5 3.2,0 0,4.5 -3.2,0" fill="none"/></g>
<g transform="translate(351.5,492.2) rotate(165.0)" stroke="#8a7038" stroke-width="1.6" opacity="0.82" stroke-linecap="round" stroke-linejoin="round"><line x1="0" y1="-4.5" x2="0" y2="4.5"/><circle cx="-3.6" cy="0" r="1.3" fill="#8a7038" stroke="none"/><circle cx="3.6" cy="0" r="1.3" fill="#8a7038" stroke="none"/></g>
<g transform="translate(300.0,499.0) rotate(180.0)" stroke="#8a7038" stroke-width="1.6" opacity="0.82" stroke-linecap="round" stroke-linejoin="round"><polygon points="0,-4.5 3.8,3.5 -3.8,3.5" fill="none"/></g>
<g transform="translate(248.5,492.2) rotate(195.0)" stroke="#8a7038" stroke-width="1.6" opacity="0.82" stroke-linecap="round" stroke-linejoin="round"><path d="M -3.2 -4.5 Q 3.4 -2 -3.2 0 Q 3.4 2 -3.2 4.5" fill="none"/></g>
<g transform="translate(200.5,472.3) rotate(210.0)" stroke="#8a7038" stroke-width="1.6" opacity="0.82" stroke-linecap="round" stroke-linejoin="round"><polygon points="0,-4.5 3.2,0 0,4.5 -3.2,0" fill="none"/></g>
<g transform="translate(159.3,440.7) rotate(225.0)" stroke="#8a7038" stroke-width="1.6" opacity="0.82" stroke-linecap="round" stroke-linejoin="round"><line x1="0" y1="-4.5" x2="0" y2="4.5"/><circle cx="-3.6" cy="0" r="1.3" fill="#8a7038" stroke="none"/><circle cx="3.6" cy="0" r="1.3" fill="#8a7038" stroke="none"/></g>
<g transform="translate(127.7,399.5) rotate(240.0)" stroke="#8a7038" stroke-width="1.6" opacity="0.82" stroke-linecap="round" stroke-linejoin="round"><polygon points="0,-4.5 3.8,3.5 -3.8,3.5" fill="none"/></g>
<g transform="translate(107.8,351.5) rotate(255.0)" stroke="#8a7038" stroke-width="1.6" opacity="0.82" stroke-linecap="round" stroke-linejoin="round"><path d="M -3.2 -4.5 Q 3.4 -2 -3.2 0 Q 3.4 2 -3.2 4.5" fill="none"/></g>
<g transform="translate(101.0,300.0) rotate(270.0)" stroke="#8a7038" stroke-width="1.6" opacity="0.82" stroke-linecap="round" stroke-linejoin="round"><polygon points="0,-4.5 3.2,0 0,4.5 -3.2,0" fill="none"/></g>
<g transform="translate(107.8,248.5) rotate(285.0)" stroke="#8a7038" stroke-width="1.6" opacity="0.82" stroke-linecap="round" stroke-linejoin="round"><line x1="0" y1="-4.5" x2="0" y2="4.5"/><circle cx="-3.6" cy="0" r="1.3" fill="#8a7038" stroke="none"/><circle cx="3.6" cy="0" r="1.3" fill="#8a7038" stroke="none"/></g>
<g transform="translate(127.7,200.5) rotate(300.0)" stroke="#8a7038" stroke-width="1.6" opacity="0.82" stroke-linecap="round" stroke-linejoin="round"><polygon points="0,-4.5 3.8,3.5 -3.8,3.5" fill="none"/></g>
<g transform="translate(159.3,159.3) rotate(315.0)" stroke="#8a7038" stroke-width="1.6" opacity="0.82" stroke-linecap="round" stroke-linejoin="round"><path d="M -3.2 -4.5 Q 3.4 -2 -3.2 0 Q 3.4 2 -3.2 4.5" fill="none"/></g>
<g transform="translate(200.5,127.7) rotate(330.0)" stroke="#8a7038" stroke-width="1.6" opacity="0.82" stroke-linecap="round" stroke-linejoin="round"><polygon points="0,-4.5 3.2,0 0,4.5 -3.2,0" fill="none"/></g>
<g transform="translate(248.5,107.8) rotate(345.0)" stroke="#8a7038" stroke-width="1.6" opacity="0.82" stroke-linecap="round" stroke-linejoin="round"><line x1="0" y1="-4.5" x2="0" y2="4.5"/><circle cx="-3.6" cy="0" r="1.3" fill="#8a7038" stroke="none"/><circle cx="3.6" cy="0" r="1.3" fill="#8a7038" stroke="none"/></g>
<g transform="translate(300.0,101.0) rotate(360.0)" stroke="#8a7038" stroke-width="1.6" opacity="0.82" stroke-linecap="round" stroke-linejoin="round"><polygon points="0,-4.5 3.8,3.5 -3.8,3.5" fill="none"/></g>
<g transform="translate(351.5,107.8) rotate(375.0)" stroke="#8a7038" stroke-width="1.6" opacity="0.82" stroke-linecap="round" stroke-linejoin="round"><path d="M -3.2 -4.5 Q 3.4 -2 -3.2 0 Q 3.4 2 -3.2 4.5" fill="none"/></g>
<g transform="translate(399.5,127.7) rotate(390.0)" stroke="#8a7038" stroke-width="1.6" opacity="0.82" stroke-linecap="round" stroke-linejoin="round"><polygon points="0,-4.5 3.2,0 0,4.5 -3.2,0" fill="none"/></g>
<g transform="translate(440.7,159.3) rotate(405.0)" stroke="#8a7038" stroke-width="1.6" opacity="0.82" stroke-linecap="round" stroke-linejoin="round"><line x1="0" y1="-4.5" x2="0" y2="4.5"/><circle cx="-3.6" cy="0" r="1.3" fill="#8a7038" stroke="none"/><circle cx="3.6" cy="0" r="1.3" fill="#8a7038" stroke="none"/></g>
<g transform="translate(472.3,200.5) rotate(420.0)" stroke="#8a7038" stroke-width="1.6" opacity="0.82" stroke-linecap="round" stroke-linejoin="round"><polygon points="0,-4.5 3.8,3.5 -3.8,3.5" fill="none"/></g>
<g transform="translate(492.2,248.5) rotate(435.0)" stroke="#8a7038" stroke-width="1.6" opacity="0.82" stroke-linecap="round" stroke-linejoin="round"><path d="M -3.2 -4.5 Q 3.4 -2 -3.2 0 Q 3.4 2 -3.2 4.5" fill="none"/></g>
</g>
<circle cx="300" cy="300" r="150" fill="none" stroke="#43434a" stroke-width="1.4" opacity="0.5"/>
<g><animateTransform attributeName="transform" type="rotate" values="0 300 300;-360 300 300" dur="160s" repeatCount="indefinite"/>
<g transform="translate(470.0,300.0) rotate(90.0)" stroke="#8f6a36" fill="#8f6a36" stroke-width="1.9" opacity="0.85" stroke-linecap="round" stroke-linejoin="round"><line x1="-3" y1="-4" x2="-3" y2="4"/><line x1="3" y1="-4" x2="3" y2="4"/></g>
<g transform="translate(457.1,365.1) rotate(112.5)" stroke="#8f6a36" fill="#8f6a36" stroke-width="1.9" opacity="0.85" stroke-linecap="round" stroke-linejoin="round"><path d="M -4.5 0 A 4.5 4.5 0 0 1 4.5 0" fill="none"/><line x1="0" y1="-2" x2="0" y2="5"/></g>
<g transform="translate(420.2,420.2) rotate(135.0)" stroke="#8f6a36" fill="#8f6a36" stroke-width="1.9" opacity="0.85" stroke-linecap="round" stroke-linejoin="round"><polygon points="0,-5 3,-1 0,3 -3,-1" fill="none"/><line x1="0" y1="3" x2="0" y2="6"/></g>
<g transform="translate(365.1,457.1) rotate(157.5)" stroke="#8f6a36" fill="#8f6a36" stroke-width="1.9" opacity="0.85" stroke-linecap="round" stroke-linejoin="round"><line x1="0" y1="5" x2="0" y2="-3"/><circle cx="0" cy="-6.5" r="1.7" stroke="none"/></g>
<g transform="translate(300.0,470.0) rotate(180.0)" stroke="#8f6a36" fill="#8f6a36" stroke-width="1.9" opacity="0.85" stroke-linecap="round" stroke-linejoin="round"><path d="M -4.5 0 A 4.5 4.5 0 0 1 4.5 0" fill="none"/><line x1="0" y1="-2" x2="0" y2="5"/></g>
<g transform="translate(234.9,457.1) rotate(202.5)" stroke="#8f6a36" fill="#8f6a36" stroke-width="1.9" opacity="0.85" stroke-linecap="round" stroke-linejoin="round"><line x1="-3" y1="-4" x2="-3" y2="4"/><line x1="3" y1="-4" x2="3" y2="4"/></g>
<g transform="translate(179.8,420.2) rotate(225.0)" stroke="#8f6a36" fill="#8f6a36" stroke-width="1.9" opacity="0.85" stroke-linecap="round" stroke-linejoin="round"><line x1="0" y1="5" x2="0" y2="-3"/><circle cx="0" cy="-6.5" r="1.7" stroke="none"/></g>
<g transform="translate(142.9,365.1) rotate(247.5)" stroke="#8f6a36" fill="#8f6a36" stroke-width="1.9" opacity="0.85" stroke-linecap="round" stroke-linejoin="round"><polygon points="0,-5 3,-1 0,3 -3,-1" fill="none"/><line x1="0" y1="3" x2="0" y2="6"/></g>
<g transform="translate(130.0,300.0) rotate(270.0)" stroke="#8f6a36" fill="#8f6a36" stroke-width="1.9" opacity="0.85" stroke-linecap="round" stroke-linejoin="round"><line x1="-3" y1="-4" x2="-3" y2="4"/><line x1="3" y1="-4" x2="3" y2="4"/></g>
<g transform="translate(142.9,234.9) rotate(292.5)" stroke="#8f6a36" fill="#8f6a36" stroke-width="1.9" opacity="0.85" stroke-linecap="round" stroke-linejoin="round"><path d="M -4.5 0 A 4.5 4.5 0 0 1 4.5 0" fill="none"/><line x1="0" y1="-2" x2="0" y2="5"/></g>
<g transform="translate(179.8,179.8) rotate(315.0)" stroke="#8f6a36" fill="#8f6a36" stroke-width="1.9" opacity="0.85" stroke-linecap="round" stroke-linejoin="round"><polygon points="0,-5 3,-1 0,3 -3,-1" fill="none"/><line x1="0" y1="3" x2="0" y2="6"/></g>
<g transform="translate(234.9,142.9) rotate(337.5)" stroke="#8f6a36" fill="#8f6a36" stroke-width="1.9" opacity="0.85" stroke-linecap="round" stroke-linejoin="round"><line x1="0" y1="5" x2="0" y2="-3"/><circle cx="0" cy="-6.5" r="1.7" stroke="none"/></g>
<g transform="translate(300.0,130.0) rotate(360.0)" stroke="#8f6a36" fill="#8f6a36" stroke-width="1.9" opacity="0.85" stroke-linecap="round" stroke-linejoin="round"><path d="M -4.5 0 A 4.5 4.5 0 0 1 4.5 0" fill="none"/><line x1="0" y1="-2" x2="0" y2="5"/></g>
<g transform="translate(365.1,142.9) rotate(382.5)" stroke="#8f6a36" fill="#8f6a36" stroke-width="1.9" opacity="0.85" stroke-linecap="round" stroke-linejoin="round"><line x1="-3" y1="-4" x2="-3" y2="4"/><line x1="3" y1="-4" x2="3" y2="4"/></g>
<g transform="translate(420.2,179.8) rotate(405.0)" stroke="#8f6a36" fill="#8f6a36" stroke-width="1.9" opacity="0.85" stroke-linecap="round" stroke-linejoin="round"><line x1="0" y1="5" x2="0" y2="-3"/><circle cx="0" cy="-6.5" r="1.7" stroke="none"/></g>
<g transform="translate(457.1,234.9) rotate(427.5)" stroke="#8f6a36" fill="#8f6a36" stroke-width="1.9" opacity="0.85" stroke-linecap="round" stroke-linejoin="round"><polygon points="0,-5 3,-1 0,3 -3,-1" fill="none"/><line x1="0" y1="3" x2="0" y2="6"/></g>
</g>
<g><animateTransform attributeName="transform" type="rotate" values="0 300 300;360 300 300" dur="70s" repeatCount="indefinite"/>
<circle cx="300" cy="300" r="118" fill="none" stroke="#43434a" stroke-width="1.3" opacity="0.45" stroke-dasharray="2.5 11"/>
<circle cx="418" cy="300" r="2.4" fill="#8f6a36" opacity="0.85"/>
<circle cx="182" cy="300" r="1.8" fill="#8f6a36" opacity="0.7"/>
</g>
<polygon points="300,182 197,365 403,365" fill="none" stroke="url(#tri)" stroke-width="2.0"/><ellipse cx="300" cy="362" rx="92" ry="13" fill="url(#floor)"/><circle cx="300" cy="300" r="120" fill="url(#halo2)"/><circle cx="300" cy="300" r="92" fill="url(#glow)"><animate attributeName="opacity" values="0.5;0.8;0.55;0.5" keyTimes="0;0.35;0.7;1" dur="6.5s" repeatCount="indefinite"/></circle><g id="corpoReact"><g transform="translate(283.0 354.5)"><g><animateTransform attributeName="transform" type="scale" values="0.04;1" keyTimes="0;1" dur="0.18s" begin="0.0s" fill="freeze" calcMode="spline" keySplines="0.2 0.7 0.3 1"/><g transform="translate(-283.0 -354.5)"><path d="M 281.5 355.8 L 286.1 352.3 L 289.8 348.5 L 293.3 344.8 L 296.8 341.3 L 300.2 338.1 L 303.6 335.2 L 307.1 332.6 L 310.6 330.3 L 313.8 327.9 L 316.0 324.1 L 318.6 320.5 L 321.5 316.9 L 324.7 313.5 L 328.2 310.1 L 331.8 306.9 L 335.6 303.8 L 339.5 300.8 L 343.5 298.0 L 347.5 295.2 L 351.6 292.5 L 355.7 289.9 L 360.0 287.6 L 360.0 287.6 L 355.6 289.7 L 351.2 291.7 L 346.7 293.6 L 342.2 295.5 L 337.6 297.2 L 333.0 298.9 L 328.3 300.5 L 323.7 302.2 L 319.0 303.9 L 314.2 305.7 L 309.5 307.7 L 304.7 309.9 L 299.9 312.3 L 296.4 316.3 L 293.3 320.7 L 290.6 325.3 L 288.3 330.1 L 286.2 335.0 L 284.5 340.0 L 283.0 345.1 L 281.9 350.3 L 281.5 355.8 Z" fill="#6e3830" opacity="0.5"/><path d="M 283.0 354.5 L 286.9 350.8 L 290.1 346.9 L 293.2 343.2 L 296.3 339.6 L 299.4 336.3 L 302.6 333.3 L 305.8 330.5 L 309.1 328.1 L 312.2 325.6 L 314.6 322.1 L 317.3 318.8 L 320.4 315.5 L 323.6 312.4 L 327.1 309.4 L 330.8 306.6 L 334.6 303.8 L 338.4 301.1 L 342.3 298.5 L 346.3 295.9 L 350.3 293.5 L 354.4 291.1 L 358.5 288.9 L 358.5 288.9 L 354.3 290.9 L 350.0 292.9 L 345.7 294.8 L 341.4 296.6 L 337.0 298.3 L 332.6 300.0 L 328.2 301.7 L 323.8 303.4 L 319.3 305.2 L 314.9 307.0 L 310.5 309.1 L 306.1 311.3 L 301.7 313.8 L 298.3 317.4 L 295.3 321.5 L 292.7 325.8 L 290.3 330.3 L 288.3 334.8 L 286.5 339.6 L 285.0 344.4 L 283.7 349.3 L 283.0 354.5 Z" fill="url(#fl)"/></g></g></g><g transform="translate(282.3 322.8)"><g><animateTransform attributeName="transform" type="scale" values="0.04;1" keyTimes="0;1" dur="0.18s" begin="0.08s" fill="freeze" calcMode="spline" keySplines="0.2 0.7 0.3 1"/><g transform="translate(-282.3 -322.8)"><path d="M 280.7 323.9 L 284.1 321.4 L 287.0 318.6 L 289.8 316.0 L 292.5 313.5 L 295.3 311.2 L 298.0 309.2 L 300.7 307.4 L 303.4 305.9 L 306.2 304.6 L 308.3 302.3 L 310.5 299.9 L 312.9 297.5 L 315.5 295.2 L 318.3 292.9 L 321.3 290.8 L 324.4 288.8 L 327.5 286.8 L 330.7 284.9 L 333.9 283.0 L 337.1 281.3 L 340.4 279.6 L 343.8 278.1 L 343.8 278.1 L 340.3 279.2 L 336.7 280.2 L 333.1 281.0 L 329.5 281.8 L 325.8 282.5 L 322.1 283.1 L 318.4 283.7 L 314.6 284.4 L 310.7 285.1 L 306.9 285.8 L 302.9 286.8 L 298.9 287.9 L 295.1 289.7 L 292.3 293.0 L 289.8 296.4 L 287.6 300.0 L 285.7 303.7 L 284.1 307.6 L 282.7 311.5 L 281.6 315.5 L 280.8 319.5 L 280.7 323.9 Z" fill="#6e3830" opacity="0.5"/><path d="M 282.3 322.8 L 285.2 320.1 L 287.7 317.3 L 290.2 314.6 L 292.6 312.0 L 295.1 309.7 L 297.6 307.6 L 300.1 305.7 L 302.6 304.1 L 305.2 302.7 L 307.4 300.6 L 309.6 298.4 L 312.0 296.3 L 314.6 294.2 L 317.4 292.3 L 320.3 290.5 L 323.3 288.7 L 326.4 287.0 L 329.5 285.3 L 332.6 283.7 L 335.8 282.1 L 338.9 280.6 L 342.1 279.3 L 342.1 279.3 L 338.8 280.3 L 335.5 281.3 L 332.1 282.2 L 328.6 282.9 L 325.2 283.7 L 321.7 284.4 L 318.2 285.1 L 314.7 285.8 L 311.1 286.6 L 307.5 287.4 L 303.9 288.4 L 300.3 289.7 L 296.8 291.4 L 294.2 294.4 L 291.8 297.5 L 289.6 300.7 L 287.8 304.1 L 286.1 307.6 L 284.8 311.3 L 283.6 315.0 L 282.7 318.7 L 282.3 322.8 Z" fill="url(#fl)"/></g></g></g><g transform="translate(261.0 292.4)"><g><animateTransform attributeName="transform" type="scale" values="0.04;1" keyTimes="0;1" dur="0.18s" begin="0.16s" fill="freeze" calcMode="spline" keySplines="0.2 0.7 0.3 1"/><g transform="translate(-261.0 -292.4)"><path d="M 259.5 293.6 L 262.6 291.7 L 264.9 289.6 L 267.1 287.6 L 269.1 285.7 L 271.1 284.1 L 273.0 282.7 L 274.9 281.5 L 276.7 280.5 L 277.5 278.4 L 278.5 276.3 L 279.8 274.4 L 281.4 272.5 L 283.3 270.6 L 285.3 268.9 L 287.4 267.3 L 289.7 265.8 L 292.0 264.4 L 294.4 263.0 L 296.9 261.8 L 299.3 260.6 L 301.8 259.5 L 304.4 258.5 L 304.4 258.5 L 301.8 259.4 L 299.2 260.1 L 296.5 260.8 L 293.9 261.5 L 291.2 262.1 L 288.5 262.6 L 285.7 263.2 L 283.0 263.7 L 280.2 264.3 L 277.4 265.0 L 274.6 265.8 L 271.7 266.8 L 268.8 267.9 L 265.8 269.4 L 264.0 272.0 L 262.5 274.9 L 261.3 277.8 L 260.4 280.8 L 259.7 283.9 L 259.2 287.0 L 258.9 290.1 L 259.5 293.6 Z" fill="#6e3830" opacity="0.5"/><path d="M 261.0 292.4 L 263.6 290.4 L 265.5 288.2 L 267.3 286.1 L 269.0 284.2 L 270.7 282.5 L 272.4 281.0 L 274.1 279.8 L 275.7 278.7 L 276.6 276.8 L 277.8 275.0 L 279.1 273.3 L 280.7 271.6 L 282.5 270.1 L 284.5 268.6 L 286.6 267.2 L 288.8 265.9 L 291.0 264.7 L 293.3 263.6 L 295.7 262.5 L 298.0 261.5 L 300.4 260.6 L 302.8 259.7 L 302.8 259.7 L 300.4 260.5 L 297.9 261.2 L 295.4 261.8 L 292.9 262.4 L 290.4 263.0 L 287.9 263.5 L 285.4 264.1 L 282.8 264.6 L 280.3 265.2 L 277.7 265.9 L 275.2 266.7 L 272.6 267.7 L 270.0 268.9 L 267.4 270.3 L 265.8 272.7 L 264.4 275.3 L 263.2 277.9 L 262.3 280.7 L 261.6 283.5 L 261.1 286.3 L 260.8 289.2 L 261.0 292.4 Z" fill="url(#fl)"/></g></g></g></g></svg>